<svg xmlns="http://www.w3.org/2000/svg" version="1.1" xmlns:xlink="http://www.w3.org/1999/xlink" xmlns:svgjs="http://svgjs.dev/svgjs" width="1000" height="750" viewBox="0 0 1000 750"><rect width="1000" height="750" fill="#f6f9fc"></rect><g transform="matrix(0.5191111111111111,0,0,0.5191111111111111,240.44444444444446,83)"><svg viewBox="0 0 320 360" data-background-color="#f6f9fc" preserveAspectRatio="xMidYMid meet" height="1125" width="1000" xmlns="http://www.w3.org/2000/svg" xmlns:xlink="http://www.w3.org/1999/xlink"><g id="tight-bounds" transform="matrix(1,0,0,1,0,0)"><svg viewBox="0 0 320 360" height="360" width="320"><g><svg></svg></g><g><svg viewBox="0 0 320 360" height="360" width="320"><g><path xmlns="http://www.w3.org/2000/svg" d="M297.491 100.645c-12.426-21.51-112.674-79.355-137.491-79.355-24.817 0-125.028 57.845-137.491 79.355-11.591 20.02-11.591 138.726 0 158.746 12.463 21.474 112.674 79.319 137.491 79.319 24.817 0 125.064-57.845 137.491-79.355 11.591-20.02 11.591-138.69 0-158.71zM309.481 93.705c-14.461-24.998-119.469-86.295-149.481-86.295-30.012 0-135.02 61.297-149.481 86.295-14.025 24.199-14.025 148.391 0 172.59 14.461 24.998 119.469 86.295 149.481 86.295 30.012 0 135.02-61.297 149.481-86.259 14.025-24.235 14.025-148.427 0-172.626zM300.906 261.353c-12.753 22.055-115.472 81.317-140.906 81.318-25.434 0-128.153-59.298-140.906-81.354-11.881-20.529-11.881-142.178 0-162.707 12.753-22.019 115.472-81.281 140.906-81.281 25.434 0 128.153 59.298 140.906 81.318 11.881 20.529 11.881 142.178 0 162.706z" fill="#00aeef" fill-rule="nonzero" stroke="none" stroke-width="1" stroke-linecap="butt" stroke-linejoin="miter" stroke-miterlimit="10" stroke-dasharray="" stroke-dashoffset="0" font-family="none" font-weight="none" font-size="none" text-anchor="none" style="mix-blend-mode: normal" data-fill-palette-color="tertiary"></path></g><g transform="matrix(1,0,0,1,48,150.18372703412075)"><svg viewBox="0 0 224 59.63254593175852" height="59.63254593175852" width="224"><g><svg viewBox="0 0 224 59.63254593175852" height="59.63254593175852" width="224"><g><svg viewBox="0 0 224 59.63254593175852" height="59.63254593175852" width="224"><g><svg viewBox="0 0 224 59.63254593175852" height="59.63254593175852" width="224"><g id="textblocktransform"><svg viewBox="0 0 224 59.63254593175852" height="59.63254593175852" width="224" id="textblock"><g><svg viewBox="0 0 224 59.63254593175852" height="59.63254593175852" width="224"><g transform="matrix(1,0,0,1,0,0)"><svg width="224" viewBox="3.25 -35.5 133.33999633789062 35.5" height="59.63254593175852" data-palette-color="#ffffff"><path d="M23.15-4.4L23.15 0 3.25 0 3.25-26.65Q3.25-30.35 5.6-32.6L5.6-32.6Q7.2-34.1 9.2-34.55 11.2-35 14.1-35L14.1-35 23.15-35 23.15-30.6 13.45-30.6Q7.95-30.6 7.95-26L7.95-26 7.95-20.3 19.5-20.3 19.5-15.9 7.95-15.9 7.95-4.4 23.15-4.4ZM37.4-35L46.55-35 46.55-30.6 37.7-30.6Q32.65-30.6 32.65-26.5L32.65-26.5Q32.65-24.3 34.87-22.78 37.1-21.25 40.9-19.85L40.9-19.85Q42.6-19.2 43.8-18.53 45-17.85 46.2-16.75 47.4-15.65 48-13.93 48.6-12.2 48.6-9.95L48.6-9.95Q48.6-7.45 47.55-5.48 46.5-3.5 44.85-2.38 43.2-1.25 41.47-0.68 39.75-0.1 38.1-0.05L38.1-0.05Q37.4 0 36.1 0L36.1 0 28.3 0 28.3-4.4 35.95-4.4Q39.35-4.4 41.5-5.83 43.65-7.25 43.65-10L43.65-10Q43.65-11.35 43.05-12.38 42.45-13.4 41.32-14.15 40.2-14.9 39.02-15.45 37.85-16 36.2-16.6L36.2-16.6Q35.75-16.75 35.5-16.85L35.5-16.85Q27.65-19.85 27.65-26.65L27.65-26.65Q27.65-30.85 30.35-32.93 33.05-35 37.4-35L37.4-35ZM58.55 0L53.85 0 53.85-22.75Q53.85-28.8 56.82-32.15 59.8-35.5 65.3-35.5L65.3-35.5Q70.84-35.5 73.82-32.8 76.8-30.1 76.8-25.2L76.8-25.2Q76.8-22.05 75.3-20.05 73.8-18.05 70.2-16.9L70.2-16.9 70.2-16.7Q73.95-15.25 75.22-12.58 76.5-9.9 76.5-3.75L76.5-3.75 76.5 0 71.8 0 71.8-6.4Q71.8-10.2 69.65-12.33 67.5-14.45 63.45-14.45L63.45-14.45 60.75-14.45 60.75-18.85 63.6-18.85Q68.4-18.85 70.25-20.8 72.09-22.75 72.09-25.45L72.09-25.45Q72.09-28 70.27-29.55 68.45-31.1 65.45-31.1L65.45-31.1Q62-31.1 60.27-29.15 58.55-27.2 58.55-22.75L58.55-22.75 58.55 0ZM86.74-12.8L86.74 0 82.29 0 82.29-22Q82.29-27.4 85.77-31.2 89.24-35 94.74-35L94.74-35 106.19-35 106.19 0 101.49 0 101.49-30.6 94.74-30.6Q91.09-30.6 88.92-28.45 86.74-26.3 86.74-21.6L86.74-21.6 86.74-17.35Q89.54-20.3 94.74-20.3L94.74-20.3 99.29-20.3 99.29-15.9 94.74-15.9Q91.84-15.9 90.02-15.2 88.19-14.5 86.74-12.8L86.74-12.8ZM117.14-12.8L117.14 0 112.69 0 112.69-22Q112.69-27.4 116.17-31.2 119.64-35 125.14-35L125.14-35 136.59-35 136.59 0 131.89 0 131.89-30.6 125.14-30.6Q121.49-30.6 119.32-28.45 117.14-26.3 117.14-21.6L117.14-21.6 117.14-17.35Q119.94-20.3 125.14-20.3L125.14-20.3 129.69-20.3 129.69-15.9 125.14-15.9Q122.24-15.9 120.42-15.2 118.59-14.5 117.14-12.8L117.14-12.8Z" opacity="1" transform="matrix(1,0,0,1,0,0)" fill="#ffffff" class="wordmark-text-0" data-fill-palette-color="quaternary" id="text-0"></path></svg></g></svg></g></svg></g></svg></g><g></g></svg></g></svg></g></svg></g></svg></g><defs></defs></svg><rect width="320" height="360" fill="none" stroke="none" visibility="hidden"></rect></g></svg></g></svg>