<svg xmlns="http://www.w3.org/2000/svg" width="767.915" height="693.943" viewBox="0 0 767.915 693.943">
  <g id="_599" data-name="599" transform="translate(-178.984 -127)">
    <g id="OBJECTS" transform="translate(178.984 127)">
      <g id="Group_126" data-name="Group 126">
        <g id="Group_125" data-name="Group 125">
          <g id="Group_118" data-name="Group 118" transform="translate(34.194)">
            <path id="Path_52" data-name="Path 52" d="M625.351,253.888c-1.913,0-6.83-.273-13.933-.82a368.543,368.543,0,0,1-141.794-38.8c-37.429-18.851-87.153-26.774-114.2-19.671h-.273c-9.835,2.732-19.671-3.278-22.4-13.114-6.284-23.222-37.429-39.888-70.214-39.888-39.342,0-71.034,22.13-71.034,49.177,0,11.475,5.737,22.13,15.3,30.326,27.047,23.769,42.074,58.466,38.8,94.529a96.529,96.529,0,0,0,1.366,28.14,69.458,69.458,0,0,0,3.825,12.841c10.382,26.5,51.09,59.013,53.548,83.6,19.124,189.605,68.848,258.453,251.35,285.5,182.229,27.047,345.879-56.827,365-187.42C939.812,408.249,908.666,257.713,625.351,253.888Z" transform="translate(-191.5 -101.712)" fill="#e1f3ff"/>
            <path id="Path_53" data-name="Path 53" d="M307.637,141.207a15.5,15.5,0,0,1-9.835-4.918c-5.464-5.737-13.934-9.289-23.223-9.289-16.392,0-29.779,11.2-29.779,24.862s13.387,24.862,29.779,24.862a32.869,32.869,0,0,0,20.764-7.1,13.379,13.379,0,0,1,9.562-2.459,12.972,12.972,0,0,0,14.207-12.841A13.278,13.278,0,0,0,307.637,141.207Z" transform="translate(-99.181 -127)" fill="#e1f3ff"/>
            <path id="Path_54" data-name="Path 54" d="M293.724,154.3c0,3.825-4.371,7.1-9.562,7.1-5.464,0-9.562-3.005-9.562-7.1,0-3.825,4.371-7.1,9.562-7.1C289.626,147.2,293.724,150.478,293.724,154.3Z" transform="translate(-47.566 -92.012)" fill="#e1f3ff"/>
            <path id="Path_55" data-name="Path 55" d="M444.381,187.294c0,6.83-9.289,12.294-20.491,12.294s-20.49-5.464-20.49-12.294S412.689,175,423.89,175C435.365,175,444.381,180.464,444.381,187.294Z" transform="translate(175.524 -43.861)" fill="#e1f3ff"/>
            <path id="Path_56" data-name="Path 56" d="M432.967,175.484a6.284,6.284,0,1,1-6.284-6.284A6.355,6.355,0,0,1,432.967,175.484Z" transform="translate(204.969 -53.907)" fill="#e1f3ff"/>
          </g>
          <g id="Group_119" data-name="Group 119" transform="translate(0 342.327)">
            <path id="Path_57" data-name="Path 57" d="M256.071,360.655c-1.912-13.66-4.644-35.243-18.032-52.182C217.276,282.244,179.3,277.6,179.3,277.6s-4.1,37.976,17.212,64.2c11.475,14.207,35.517,24.589,48.9,28.96a13.776,13.776,0,0,1,9.562,13.114c-1.366,91.251-15.3,134.964-15.3,134.964l13.387-1.639C264.541,418.3,258.8,379.779,256.071,360.655Z" transform="translate(-178.984 -208.479)" fill="#e1f3ff"/>
            <path id="Path_58" data-name="Path 58" d="M234.464,339.662c3.552-11.2,9.289-29.233,23.223-41.254,21.583-19.124,54.095-17.485,54.095-17.485s-2.459,32.512-24.042,51.636c-11.748,10.382-33.6,15.573-45.626,16.939A11.886,11.886,0,0,0,232,359.332c-12.568,77.317-7.1,116.113-7.1,116.113l-11.2-3.278C218.618,386.926,229.546,355.234,234.464,339.662Z" transform="translate(-118.855 -202.785)" fill="#e1f3ff"/>
            <path id="Path_59" data-name="Path 59" d="M222.878,329.891c3.005-13.66,7.65-35.244,22.4-51.09,23.223-24.862,61.471-26.5,61.471-26.5s1.093,38.522-22.4,63.111c-12.841,13.387-37.7,21.857-51.636,25.135a13.645,13.645,0,0,0-10.655,12.568c-6.01,91.8,1.639,166.656,1.639,166.656l-13.387-2.732C206.759,416.77,218.78,348.742,222.878,329.891Z" transform="translate(-125.847 -252.3)" fill="#00aeef"/>
            <path id="Path_60" data-name="Path 60" d="M230.92,354.284A45.31,45.31,0,0,0,223,335.16a28.148,28.148,0,0,0-6.83-7.1c-11.748-8.2-27.867-5.737-27.867-5.737s2.732,16.119,14.207,24.315c6.83,4.918,15.3,6.011,21.037,6.011a6.355,6.355,0,0,1,6.284,6.284c-.273,18.578-4.1,43.986-4.1,43.986l7.376-1.366C235.291,384.337,232.833,364.666,230.92,354.284Z" transform="translate(-162.849 -131.621)" fill="#00aeef"/>
            <path id="Path_61" data-name="Path 61" d="M246.947,313s-15.026,6.284-20.49,19.671c-3.005,7.377-1.366,18.578-.82,22.676a7.8,7.8,0,0,1,0,3.552l-5.737,49.45h9.016A202.134,202.134,0,0,1,228.369,366a13.026,13.026,0,0,1,4.918-9.016c4.644-3.279,11.475-9.016,14.207-15.846C253.231,328.026,246.947,313,246.947,313Z" transform="translate(-108.116 -147.164)" fill="#00aeef"/>
            <path id="Path_62" data-name="Path 62" d="M222.874,429.589h35.79a7.275,7.275,0,0,0,3.278-.819A44.3,44.3,0,0,0,285.165,389.7V355a7.233,7.233,0,0,0-7.1-7.1H203.2a7.233,7.233,0,0,0-7.1,7.1v34.7a44.511,44.511,0,0,0,23.223,39.069A7.564,7.564,0,0,0,222.874,429.589Z" transform="translate(-149.339 -86.715)" fill="#5968f6"/>
            <rect id="Rectangle_21" data-name="Rectangle 21" width="89.065" height="21.31" transform="translate(46.761 281.402)" fill="#e1e1ff"/>
            <rect id="Rectangle_22" data-name="Rectangle 22" width="89.065" height="5.191" transform="translate(46.761 281.402)" fill="#fff0f2"/>
          </g>
          <rect id="Rectangle_23" data-name="Rectangle 23" width="6.557" height="134.964" transform="translate(304.603 111.744) rotate(10.614)" fill="#fff"/>
          <path id="Path_63" data-name="Path 63" d="M379.211,231.749c-27.321-17.485-62.564,8.469-89.338-12.567a4.689,4.689,0,0,1-1.639-4.1l9.835-52.182a4.175,4.175,0,0,1,6.284-2.732c27.321,17.485,62.564-8.469,89.338,12.567a4.689,4.689,0,0,1,1.639,4.1c-3.278,17.485-6.557,34.97-9.835,52.182A4.058,4.058,0,0,1,379.211,231.749Z" transform="translate(10.15 -70.557)" fill="#36a592"/>
          <path id="Path_64" data-name="Path 64" d="M289.18,205.5a4.743,4.743,0,0,0-2.459,3.005c-.273.546-.273.82,0,1.093a3.507,3.507,0,0,1-1.093,2.732,5.948,5.948,0,0,0-1.366,2.186,6.817,6.817,0,0,0-.273,4.645,7.8,7.8,0,0,1,0,3.552,3.082,3.082,0,0,0,.273,2.186,3.184,3.184,0,0,0,4.371,1.366,2.945,2.945,0,0,0,1.639-3.005,2.929,2.929,0,0,1,.546-1.639l.273-.273a4.06,4.06,0,0,0,.546-2.459,1.831,1.831,0,0,1,.82-2.186,5.557,5.557,0,0,0,1.639-2.459,2.311,2.311,0,0,0,0-1.913,1.831,1.831,0,0,1,.82-2.186,3.463,3.463,0,0,0,1.093-2.459C295.463,205.228,290.819,204.408,289.18,205.5Z" transform="translate(2.374 8.146)" fill="#fab9af"/>
          <path id="Path_65" data-name="Path 65" d="M281.3,216.42h0c.819-1.366,1.639-2.732,2.459-3.825l3.552-3.825c2.459-2.459,3.825-4.371,6.83-4.644,4.918-.546,11.475-.82,11.748,1.912.273,2.459-6.011,4.1-9.835,4.645a3.334,3.334,0,0,0-2.459,2.186s1.912,14.207-5.737,14.753l-1.912,5.191-8.743-1.366,1.913-8.743A42.446,42.446,0,0,1,281.3,216.42Z" transform="translate(-8.869 5.97)" fill="#fab9af"/>
          <path id="Path_66" data-name="Path 66" d="M301.705,234.2s-20.49-8.2-27.867,4.918c-7.65,13.387,3.552,48.631-23.5,53.548-27.321,4.918-30.053,31.965-27.867,43.986,6.284,34.424,56.007,68.848,90.431,32.512s-8.2-60.925-11.475-79.23C297.88,271.633,319.463,247.318,301.705,234.2Z" transform="translate(-104.68 54.302)" fill="#5046af"/>
          <path id="Path_67" data-name="Path 67" d="M281.97,292.761c-.273-14.207,28.14-28.96-1.366-57.646a2.485,2.485,0,0,0-3.005-.273c-2.459,1.912-10.109,3.005-14.207,6.557-7.377,6.557-18.851,24.589-15.3,33.6,7.65,19.4-5.191,36.063-6.284,57.92-.82,22.676,36.063,45.079,53.822,38.8a19.191,19.191,0,0,0,12.021-12.294,16.11,16.11,0,0,0-1.093-12.841h0C299.455,333.469,282.516,339.753,281.97,292.761Z" transform="translate(-70.192 59.128)" fill="#41378c"/>
          <path id="Path_68" data-name="Path 68" d="M299.58,409.9a331.331,331.331,0,0,0,1.639-107.643,20.9,20.9,0,0,0-18.578-17.485h0a22.24,22.24,0,0,0-24.315,23.223,139.026,139.026,0,0,0,2.732,21.037C267.342,360.723,278,513.445,278,513.445a5.325,5.325,0,0,1-.273,2.186,13.343,13.343,0,0,1-2.459,4.918c-2.186,3.005-.819,5.191,3.825,9.016,3.825,3.005,1.912,8.469,5.737,9.016,5.464.82,9.289.547,9.835-.82.547-1.912-.82-2.186-5.464-4.371-3.552-1.912-4.1-12.841-4.1-17.212a13.3,13.3,0,0,1,.273-3.278Z" transform="translate(-41.63 146.074)" fill="#fab9af"/>
          <path id="Path_69" data-name="Path 69" d="M292.63,417.964c8.743-25.954,24.315-109.282,21.037-132.5l-21.037-1.639a22.993,22.993,0,0,0-23.223,16.392c-4.644,15.3-9.016,40.708-4.918,78.137,0,0,3.278,20.217,0,33.331-3.005,11.748-19.4,85.514-22.4,98.9a30.917,30.917,0,0,1-1.639,4.371,9.579,9.579,0,0,1-3.278,3.825c-3.005,2.459-2.186,4.918,1.366,9.562,3.005,3.825-.273,8.742,3.552,10.382,5.191,2.186,8.742,2.732,9.562,1.639,1.093-1.639-.273-2.186-4.371-5.737-1.639-1.366-1.366-6.011-.82-10.382a41.433,41.433,0,0,1,4.1-13.66C259.025,492.822,285.253,439.547,292.63,417.964Z" transform="translate(-81.398 144.568)" fill="#fab9af"/>
          <path id="Path_70" data-name="Path 70" d="M321.144,433.063q-36.473,9.425-77.044,0c2.186-10.109,4.1-18.3,4.918-21.583,3.278-13.114,0-33.331,0-33.331-4.1-37.156.273-62.837,4.918-78.137a22.994,22.994,0,0,1,23.223-16.393l21.037,1.639h0l8.743.82a21.454,21.454,0,0,1,18.578,17.485,331.219,331.219,0,0,1-1.639,107.643Z" transform="translate(-66.2 144.221)" fill="#6469d4"/>
          <path id="Path_71" data-name="Path 71" d="M256.049,376.063c-2.732,6.284-5.191,12.841-7.65,19.4-.273-9.289-1.366-17.212-1.366-17.212-4.1-37.156.273-62.837,4.918-78.137a22.993,22.993,0,0,1,23.222-16.392l7.65.547h0l13.387,1.093h0l8.743.82a21.454,21.454,0,0,1,18.578,17.485c.546,3.279,1.093,7.377,1.639,11.475C290.2,314.045,268.617,346.284,256.049,376.063Z" transform="translate(-63.943 144.395)" fill="#5159bf"/>
          <path id="Path_72" data-name="Path 72" d="M346.182,274.628c3.279-16.392,6.557-58.739,6.557-58.739-1.639-2.186-8.469-5.191-10.655-2.186L328.7,271.9c-14.48,18.3-26.5,34.97-31.965,43.167a13.272,13.272,0,0,1-9.289,5.464,143.918,143.918,0,0,0-23.5,3.552c-35.79,9.289-21.037,22.4-21.037,22.4a57.8,57.8,0,0,1,10.655,15.026c4.644,9.835,10.382,22.4,13.933,29.78,1.366,4.644-2.732,18.578-4.371,22.949l-3.279,9.835a2.842,2.842,0,0,0,1.639,3.552c16.119,5.464,48.631,6.284,69.394-.273,2.459-.819,3.552-3.278,2.186-5.464l-15.3-41.8c-4.1-8.743-3.279-10.928-.546-16.119a11.638,11.638,0,0,0,1.093-9.562,44.91,44.91,0,0,0-4.1-8.2,13.184,13.184,0,0,1,1.093-15.3C327.057,316.155,343.177,289.927,346.182,274.628Z" transform="translate(-73.479 20.981)" fill="#00aeef"/>
          <path id="Path_73" data-name="Path 73" d="M254.192,234.711c-10.655,3.005-12.568,11.748-8.743,25.955,1.366,5.191,5.191,9.836,8.2,12.567a10.942,10.942,0,0,1,3.278,7.923l-.273,8.743c.547,7.923,5.191,10.928,10.655,10.928a10.622,10.622,0,0,0,7.65-3.552c2.186-2.459,1.366-6.284,0-9.289L273.59,285.8a5.923,5.923,0,0,1,2.186-8.2,20.761,20.761,0,0,0,6.011-4.645c1.366-1.639,2.186-14.207-3.552-27.047C272.224,232.525,264.847,231.706,254.192,234.711Z" transform="translate(-67.003 57.073)" fill="#fab9af"/>
          <path id="Path_74" data-name="Path 74" d="M260.9,250.655a2.546,2.546,0,0,1-1.639,3.552h0a2.517,2.517,0,0,1-3.005-1.913L253.8,241.639a1.643,1.643,0,0,1,.273-1.093c.273-.273.546-.546.82-.546a2.087,2.087,0,0,1,1.366.546Z" transform="translate(-49.399 68.723)" fill="#fa968c"/>
          <path id="Path_75" data-name="Path 75" d="M252.15,246.819c.82,3.278,1.912,7.376-.82,8.2-3.005.82-7.376-4.371-8.2-7.65s.82-4.645,3.552-5.464S251.33,243.54,252.15,246.819Z" transform="translate(-68.239 71.74)" fill="#fab9af"/>
          <path id="Path_76" data-name="Path 76" d="M243.566,249.49c8.743-16.666,27.321-22.13,36.61-16.392,5.191,3.005,12.021,16.392.82,16.666a14.687,14.687,0,0,1-7.65-2.186,4.061,4.061,0,0,0-2.459-.546l-7.377,2.459a11.471,11.471,0,0,0-7.1,14.753l.82,2.186a1.391,1.391,0,0,1-1.912,1.639l-.546-.82a8.857,8.857,0,0,0-5.464-4.371C244.386,261.238,238.375,259.325,243.566,249.49Z" transform="translate(-70.584 52.949)" fill="#5046af"/>
          <path id="Path_77" data-name="Path 77" d="M260.222,323.146a50.238,50.238,0,0,0-4.1-6.284c-.273-.273-1.639-1.093-1.913-1.366-1.093-.82-2.732-1.639-3.005-3.005l-1.912-4.918c-.82-2.459-2.732-3.825-5.191-2.732h0c-2.459,1.093-3.005,3.552-1.639,6.011l1.366,3.552c1.093,1.912,1.093,4.1,1.093,6.284.273,4.371,3.005,8.743,5.737,12.021,1.639,2.186,5.191,2.459,9.835,2.459,2.186,0,6.01-.546,3.825-2.459-1.912-1.639-8.743-2.186-9.562-9.289,0-.273,0-1.093.273-1.366,1.093-.546,2.459,2.186,3.279,3.005,1.366,1.366,3.005,1.639,3.552,1.366C262.681,325.878,261.315,325.059,260.222,323.146Z" transform="translate(-70.301 180.373)" fill="#fab9af"/>
          <g id="Group_120" data-name="Group 120" transform="translate(296.745 115.293)">
            <path id="Path_78" data-name="Path 78" d="M350.437,300.6l-36.61,30.6A73.1,73.1,0,0,0,287.6,387.48V511.515h0a25.652,25.652,0,0,0,25.681-25.681v-14.48A107.837,107.837,0,0,1,351.8,388.846l33.878-28.413Z" transform="translate(-287.6 58.393)" fill="#5968f6"/>
            <path id="Path_79" data-name="Path 79" d="M380.944,300.6l36.61,30.6a73.1,73.1,0,0,1,26.228,56.28V511.515h0A25.652,25.652,0,0,1,418.1,485.834v-14.48a107.837,107.837,0,0,0-38.522-82.508L345.7,360.432Z" transform="translate(-186.967 58.393)" fill="#5968f6"/>
            <path id="Path_80" data-name="Path 80" d="M380.944,300.6l36.61,30.6a73.1,73.1,0,0,1,26.228,56.28V511.515h0A25.652,25.652,0,0,1,418.1,485.834v-14.48a107.837,107.837,0,0,0-38.522-82.508L345.7,360.432Z" transform="translate(-186.967 58.393)" fill="#101a43" opacity="0.21"/>
            <path id="Path_81" data-name="Path 81" d="M418.565,406.015H324.582a10.989,10.989,0,0,1-10.928-12.294l8.469-69.121H421.3l8.469,69.121C430.04,400.278,425.122,406.015,418.565,406.015Z" transform="translate(-242.621 99.962)" fill="#6469d4"/>
            <path id="Path_82" data-name="Path 82" d="M368.455,405.842H342.5V324.7h28.413l8.469,69.121A11.055,11.055,0,0,1,368.455,405.842Z" transform="translate(-192.51 100.135)" fill="#6469d4"/>
            <path id="Path_83" data-name="Path 83" d="M417.468,609.608a34.007,34.007,0,0,0,33.6-27.594c7.377-38.249,11.748-83.328,11.748-131.412,0-137.7-61.471-281.4-78.41-281.4C364.193,169.2,306,312.906,306,450.6c0,48.357,4.371,93.436,11.748,131.412a34.225,34.225,0,0,0,33.6,27.594Z" transform="translate(-255.73 -169.2)" fill="#fff"/>
            <path id="Path_84" data-name="Path 84" d="M422.716,283.4c-19.124-66.662-43.44-114.2-53.548-114.2-11.748,0-36.063,47.538-54.368,114.2Z" transform="translate(-240.488 -169.2)" fill="#fff"/>
            <path id="Path_85" data-name="Path 85" d="M414.408,266.461C396.376,208.815,375.066,169.2,366.05,169.2c-10.655,0-31.692,39.615-49.45,97.261Z" transform="translate(-237.37 -169.2)" fill="#5968f6"/>
            <path id="Path_86" data-name="Path 86" d="M320.3,253.94h10.382c9.835-31.965,14.207-54.368,22.4-75.4.547-1.639-1.912-3.005-2.732-1.366C342.156,190.829,332.048,214.6,320.3,253.94Z" transform="translate(-230.962 -156.679)" fill="#7a86ff"/>
            <path id="Path_87" data-name="Path 87" d="M426.115,299.207A56.007,56.007,0,1,1,370.107,243.2,56.084,56.084,0,0,1,426.115,299.207Z" transform="translate(-241.7 -41.028)" opacity="0.39"/>
            <path id="Path_88" data-name="Path 88" d="M426.115,297.107A56.007,56.007,0,1,1,370.107,241.1,56.084,56.084,0,0,1,426.115,297.107Z" transform="translate(-241.7 -44.665)" fill="#5968f6"/>
            <path id="Path_89" data-name="Path 89" d="M334.947,241.1H334.4V353.115h.547a56.007,56.007,0,1,0,0-112.014Z" transform="translate(-206.54 -44.665)" fill="#4957cf"/>
            <path id="Path_90" data-name="Path 90" d="M397.1,285.849A38.249,38.249,0,1,1,358.849,247.6,38.361,38.361,0,0,1,397.1,285.849Z" transform="translate(-230.442 -33.406)" fill="#d2f0ff"/>
            <path id="Path_91" data-name="Path 91" d="M401.074,382.267H329.221A12.128,12.128,0,0,1,317.2,370.246V354.4h95.622v15.846A11.722,11.722,0,0,1,401.074,382.267Z" transform="translate(-236.331 151.578)" fill="#44c8f5"/>
            <path id="Path_92" data-name="Path 92" d="M353.443,382.267H344.7V354.4h20.764v15.846A12.128,12.128,0,0,1,353.443,382.267Z" transform="translate(-188.699 151.578)" fill="#00aeef"/>
            <path id="Path_93" data-name="Path 93" d="M344.706,514.159l-.546.82h0a37.551,37.551,0,0,1-9.562-23.5l-5.191-162.011a37.674,37.674,0,0,1,14.48-30.872h0a37.093,37.093,0,0,1,14.48,31.146L352.9,492.3A35,35,0,0,1,344.706,514.159Z" transform="translate(-215.206 54.929)" fill="#5968f6"/>
            <path id="Path_94" data-name="Path 94" d="M335.346,514.333l-.546.82h0V298.5h0a37.094,37.094,0,0,1,14.48,31.146L343.816,492.2A37.106,37.106,0,0,1,335.346,514.333Z" transform="translate(-205.847 54.755)" opacity="0.21"/>
            <path id="Path_95" data-name="Path 95" d="M376.595,249.9v2.186a49.729,49.729,0,0,1-49.724,49.723,22.085,22.085,0,0,1-4.371-.273,38.237,38.237,0,0,0,71.034-19.671A37.272,37.272,0,0,0,376.595,249.9Z" transform="translate(-227.151 -29.423)" fill="#afe6ff"/>
          </g>
          <path id="Path_96" data-name="Path 96" d="M258.019,258.878c3.552-3.552,11.748-4.645,19.4-3.005,7.377,1.366-8.469,52.182-22.949,75.951a10.39,10.39,0,0,0-1.366,8.469l15.573,55.188c-1.912,3.825-5.191,4.371-8.743,4.918L233.7,343.025a26.711,26.711,0,0,1-1.639-17.212C236.982,308.055,247.637,269.806,258.019,258.878Z" transform="translate(-88.315 94.924)" fill="#00aeef"/>
          <g id="Group_123" data-name="Group 123" transform="translate(486.896 267.469)">
            <path id="Path_97" data-name="Path 97" d="M422.264,367.178l4.1,16.119.82,1.639,3.005,4.371a4.766,4.766,0,0,1-2.732,7.377s-6.011,2.186-12.021,4.1c-6.284,1.912-13.934.273-13.934-1.366,0-3.551,3.279-.82,9.016-4.644l5.737-4.1c4.918-3.825.546-13.66-2.459-19.124-1.093-1.912,0-6.83,2.186-7.377l1.366-.273C419.532,363.9,421.717,364.993,422.264,367.178Z" transform="translate(-280.47 15.856)" fill="#fab9af"/>
            <path id="Path_98" data-name="Path 98" d="M417.428,328.216c-1.093-3.005-2.186-6.01-2.732-7.377a11.89,11.89,0,0,0-1.639-1.913c-.82-1.093-2.186-2.459-2.459-3.552l-.819-5.191c-.273-2.459-1.913-4.371-4.371-3.825h0c-2.732.546-3.552,3.005-3.005,5.737l.546,3.825a13.353,13.353,0,0,1-.273,6.557c-.546,4.644,1.093,9.562,3.005,13.387,1.093,2.459,4.645,3.552,9.289,4.644,2.186.546,6.011.82,4.1-1.639-1.366-1.913-8.469-4.1-7.376-11.2,0-.273.273-1.366.546-1.366,1.366-.273,1.913,2.459,2.732,3.825,1.093,1.913,2.732,2.459,3.552,2.186C419.34,331.495,418.247,330.4,417.428,328.216Z" transform="translate(-279.185 -83.97)" fill="#fab9af"/>
            <path id="Path_99" data-name="Path 99" d="M490,261.907c-7.377,22.949-25.955,66.116-53.548,81.415C417.877,353.7,372.8,369,372.8,369s-1.366-1.912-2.459-3.552a14.376,14.376,0,0,1-1.639-4.1s56.007-28.687,63.657-37.156c7.377-8.2,32.511-61.471,40.161-69.668C480.988,244.969,494.1,249.067,490,261.907Z" transform="translate(-337.281 -182.678)" fill="#00aeef"/>
            <path id="Path_100" data-name="Path 100" d="M404.2,377.939l17.485-124.582L469.5,246.8l25.135,130.046Z" transform="translate(-275.793 -186.968)" fill="#fab9af"/>
            <path id="Path_101" data-name="Path 101" d="M456.942,366.171l4.918,16.119a13.34,13.34,0,0,0,.82,1.912l3.552,5.191a5.792,5.792,0,0,1-3.005,8.743s-6.83,2.459-13.934,4.644c-7.377,2.459-16.392.273-16.392-1.639,0-4.371,4.1-.82,10.655-5.464a56.592,56.592,0,0,0,6.557-4.645c5.737-4.645.82-15.846-2.732-22.4a3.88,3.88,0,0,1,2.732-5.737l1.639-.273A5.017,5.017,0,0,1,456.942,366.171Z" transform="translate(-226.083 13.586)" fill="#fab9af"/>
            <path id="Path_102" data-name="Path 102" d="M472.542,297.971l-53-4.371s-18.851,67.209-23.769,97.261C392.219,412.445,425,496.046,425,496.046c3.279,1.366,6.284-.273,9.835-1.093,0,0-9.835-73.766-6.557-91.8,3.552-18.851,31.692-56.827,33.6-66.662A213.648,213.648,0,0,1,472.542,297.971Z" transform="translate(-290.859 -105.907)" fill="#5046af"/>
            <path id="Path_103" data-name="Path 103" d="M424.85,303.7c-5.464,29.233-17.758,73.219,5.737,114.473s48.357,84.147,48.357,84.147a14.714,14.714,0,0,0,8.743-3.005s-4.1-18.578-10.109-40.435c-6.83-24.862-15.573-54.368-13.114-69.667,4.645-28.687,9.835-66.936,8.2-85.514C471.3,284.851,427.582,288.13,424.85,303.7Z" transform="translate(-254.096 -110.819)" fill="#5046af"/>
            <path id="Path_104" data-name="Path 104" d="M406.048,379.578a4.252,4.252,0,0,1-2.459-4.918l19.671-121.3,47.811-6.557,25.681,128.134a4.371,4.371,0,0,1-3.552,5.191,312.122,312.122,0,0,1-54.368,5.191C420.8,385.315,410.693,381.764,406.048,379.578Z" transform="translate(-277.095 -186.968)" fill="#d2f0ff"/>
            <path id="Path_105" data-name="Path 105" d="M425.01,278.245c5.737,15.846,15.026,46.991,9.836,74.312-7.377,38.522-17.212,54.095-4.645,63.111s36.336-6.011,37.156-10.928-4.644-66.389-10.655-92.89-22.949-64.75-22.949-64.75l-8.743.82C424.737,247.646,422.278,270.869,425.01,278.245Z" transform="translate(-241.962 -186.448)" fill="#00aeef"/>
            <path id="Path_106" data-name="Path 106" d="M438.469,248.8s-3.825,17.212-.82,43.167c3.005,25.681,9.562,104.092-13.933,116.113-7.377,3.825-24.315-15.573-24.315-19.124,0-6.284,5.737-26.774,10.928-45.625,4.371-15.026,8.743-65.3,10.109-84.694a9.312,9.312,0,0,1,8.2-8.469Z" transform="translate(-284.107 -183.504)" fill="#b0b0ff"/>
            <g id="Group_121" data-name="Group 121" transform="translate(134.691)">
              <path id="Path_107" data-name="Path 107" d="M440.231,229.58s-.82,7.1,3.552,12.568c4.371,5.191-1.913,10.109-3.552,13.66-1.366,3.552.273,9.016-3.825,11.475s-15.846,3.005-17.758-1.093C416.735,261.545,426.844,227.121,440.231,229.58Z" transform="translate(-385.863 -217.012)" fill="#41378c"/>
              <path id="Path_108" data-name="Path 108" d="M409.106,247.03c-.546,23.5,21.31,28.14,34.151,28.14s13.387-28.14,13.387-38.522c0-10.109-10.108-11.748-22.676-11.748-10.109,0-19.671,7.923-23.5,15.3C409.106,242.112,409.106,244.844,409.106,247.03Z" transform="translate(-402.003 -224.9)" fill="#41378c"/>
              <path id="Path_109" data-name="Path 109" d="M430.921,228.2c10.655,0,14.753,7.65,14.753,21.583,0,5.191-2.186,10.382-4.1,13.934a10.76,10.76,0,0,0-1.093,8.2l2.459,7.923c1.639,7.377-1.912,11.475-7.1,12.841a9.187,9.187,0,0,1-7.923-1.366c-2.732-1.639-3.005-5.464-2.459-8.469l.546-2.186a5.7,5.7,0,0,0-4.1-7.1c-8.2-1.912-9.289-10.382-11.475-23.769C408.518,236.123,420.266,228.2,430.921,228.2Z" transform="translate(-400.049 -219.184)" fill="#fab9af"/>
              <path id="Path_110" data-name="Path 110" d="M412.51,226.939l6.011,1.913a9.794,9.794,0,0,0,6.83,0l12.294-3.552c7.377,0,19.671,4.1,18.032,14.753l-1.366,7.65a6.673,6.673,0,0,1-6.01,5.464h0a2.289,2.289,0,0,1-2.186,1.639,2.449,2.449,0,0,1-2.459-2.459h0a7.553,7.553,0,0,0-5.737-7.1,30.3,30.3,0,0,0-13.114,0c-8.469,2.186-17.485-3.005-18.3-11.748v-1.639C406.773,228.852,409.505,226.12,412.51,226.939Z" transform="translate(-406.5 -224.207)" fill="#41378c"/>
              <path id="Path_111" data-name="Path 111" d="M421.1,239.837c0,3.279,1.093,6.011,4.371,6.011,3.005,0,5.191-4.371,5.191-7.65s-1.912-4.1-5.191-4.1C422.466,234.1,421.1,236.559,421.1,239.837Z" transform="translate(-381.212 -208.965)" fill="#fab9af"/>
              <path id="Path_112" data-name="Path 112" d="M411.626,246.9a2.468,2.468,0,0,0,2.459,3.005h0a2.409,2.409,0,0,0,2.459-2.186V237.339a2.072,2.072,0,0,0-.546-1.093,1.42,1.42,0,0,0-1.093-.546c-.547,0-1.093.273-1.093.82Z" transform="translate(-397.693 -206.194)" fill="#fa968c"/>
            </g>
            <path id="Path_113" data-name="Path 113" d="M424.677,255.6a1.815,1.815,0,0,1,1.366,1.093c1.639,5.191,9.016,29.233,10.655,42.347,1.366,10.655-3.005,29.233-5.464,38.8a15.008,15.008,0,0,1-6.83,9.016l-1.639,1.093a3.084,3.084,0,0,1-4.1-1.093l-1.093-2.732a7.636,7.636,0,0,1-.546-6.011c3.005-7.65,10.109-27.594,9.289-40.708-.273-4.645-4.644-33.058-6.01-40.161a1.368,1.368,0,0,1,1.366-1.639Z" transform="translate(-254.197 -171.726)" fill="#afe6ff"/>
            <path id="Path_114" data-name="Path 114" d="M425.259,254.473a1.815,1.815,0,0,1,1.366,1.093c1.639,5.191,8.469,29.506,9.835,42.62,1.093,10.655-3.552,29.233-6.284,38.522a14.691,14.691,0,0,1-6.83,8.743l-1.639.82a3.084,3.084,0,0,1-4.1-1.093l-1.366-2.459a6.674,6.674,0,0,1-.273-6.011c3.005-7.376,10.655-27.32,10.382-40.434,0-4.645-4.1-33.058-4.918-40.435A1.53,1.53,0,0,1,422.8,254.2Z" transform="translate(-256.418 -174.151)" fill="#5159bf"/>
            <path id="Path_115" data-name="Path 115" d="M418.366,259.623h4.645a1.291,1.291,0,0,0,1.366-1.366v-4.644a1.291,1.291,0,0,0-1.366-1.366l-4.1-.546A2.321,2.321,0,0,0,417,253.612v4.644A1.463,1.463,0,0,0,418.366,259.623Z" transform="translate(-253.623 -178.481)" fill="#5159bf"/>
            <path id="Path_116" data-name="Path 116" d="M427.1,246.7l7.65,1.366s-1.639,12.568-7.65,21.857a1.32,1.32,0,0,1-1.912,0l-5.464-7.65a2.46,2.46,0,0,1,0-3.005Z" transform="translate(-249.794 -187.141)" fill="#fff"/>
            <path id="Path_117" data-name="Path 117" d="M420.851,247.9l-7.65,2.459s-.273,7.65,5.737,16.666a1.321,1.321,0,0,0,1.913,0l4.371-7.1a3.232,3.232,0,0,0,.273-2.732Z" transform="translate(-260.206 -185.063)" fill="#fff"/>
            <g id="Group_122" data-name="Group 122" transform="translate(0 51.909)">
              <path id="Path_118" data-name="Path 118" d="M518.222,336.447V320.328a6.764,6.764,0,0,0-6.83-6.83h-4.918a7.394,7.394,0,0,1-7.1-4.918,47.135,47.135,0,0,0-2.732-6.557,7.425,7.425,0,0,1,1.366-8.469L501.557,290a6.6,6.6,0,0,0,0-9.562l-11.475-11.475a6.6,6.6,0,0,0-9.562,0l-3.552,3.552a7.5,7.5,0,0,1-8.469,1.366,66.7,66.7,0,0,0-6.557-2.732,7.393,7.393,0,0,1-4.917-7.1V259.13a6.764,6.764,0,0,0-6.83-6.83H434.075a6.764,6.764,0,0,0-6.83,6.83v4.918a7.394,7.394,0,0,1-4.918,7.1,47.137,47.137,0,0,0-6.557,2.732,7.425,7.425,0,0,1-8.469-1.366l-3.552-3.552a6.6,6.6,0,0,0-9.562,0L382.712,280.44a6.6,6.6,0,0,0,0,9.562l3.552,3.552a7.5,7.5,0,0,1,1.366,8.469,66.738,66.738,0,0,0-2.732,6.557,7.394,7.394,0,0,1-7.1,4.918H372.33a6.764,6.764,0,0,0-6.83,6.83v16.119a6.764,6.764,0,0,0,6.83,6.83h4.918a7.394,7.394,0,0,1,7.1,4.918,47.138,47.138,0,0,0,2.732,6.557,7.425,7.425,0,0,1-1.366,8.469l-3.552,3.552a6.6,6.6,0,0,0,0,9.562L393.64,387.81a6.6,6.6,0,0,0,9.562,0l3.552-3.552a7.5,7.5,0,0,1,8.469-1.366,66.748,66.748,0,0,0,6.557,2.732,7.393,7.393,0,0,1,4.918,7.1v4.918a6.764,6.764,0,0,0,6.83,6.83h16.119a6.764,6.764,0,0,0,6.83-6.83v-4.918a7.393,7.393,0,0,1,4.918-7.1,47.15,47.15,0,0,0,6.557-2.732,7.425,7.425,0,0,1,8.469,1.366l3.552,3.552a6.6,6.6,0,0,0,9.562,0l11.475-11.475a6.6,6.6,0,0,0,0-9.562l-3.552-3.552a7.5,7.5,0,0,1-1.366-8.469,66.712,66.712,0,0,0,2.732-6.557,7.393,7.393,0,0,1,7.1-4.918h4.918C515.217,343.278,518.222,340.272,518.222,336.447ZM444.73,365.134a36.733,36.733,0,1,1,33.6-33.6C477.241,349.288,462.761,363.768,444.73,365.134Z" transform="translate(-342.824 -229.351)" fill="#5968f6"/>
              <path id="Path_119" data-name="Path 119" d="M555.274,353.456V332.419a8.631,8.631,0,0,0-8.743-8.743h-6.557a10.049,10.049,0,0,1-9.289-6.557c-1.093-3.005-2.186-5.737-3.552-8.743a9.569,9.569,0,0,1,1.913-11.2l4.644-4.645a8.423,8.423,0,0,0,0-12.294l-14.753-14.753a8.423,8.423,0,0,0-12.294,0L502,270.128a9.569,9.569,0,0,1-11.2,1.912,83.456,83.456,0,0,0-8.742-3.552A9.78,9.78,0,0,1,475.5,259.2v-6.557a8.631,8.631,0,0,0-8.743-8.743H445.719a8.631,8.631,0,0,0-8.743,8.743V259.2a10.049,10.049,0,0,1-6.557,9.289c-3.005,1.093-5.737,2.186-8.743,3.552a9.569,9.569,0,0,1-11.2-1.912l-4.645-4.645a8.423,8.423,0,0,0-12.294,0l-14.753,14.753a8.423,8.423,0,0,0,0,12.294l4.645,4.645a9.569,9.569,0,0,1,1.913,11.2,83.417,83.417,0,0,0-3.552,8.743,9.78,9.78,0,0,1-9.289,6.557h-6.557a8.631,8.631,0,0,0-8.743,8.743v21.037a8.631,8.631,0,0,0,8.743,8.743H372.5a10.05,10.05,0,0,1,9.289,6.557c1.093,3.005,2.186,5.737,3.552,8.743a9.569,9.569,0,0,1-1.913,11.2l-4.645,4.645a8.423,8.423,0,0,0,0,12.294l14.753,14.753a8.423,8.423,0,0,0,12.294,0l4.645-4.645a9.569,9.569,0,0,1,11.2-1.912,83.47,83.47,0,0,0,8.743,3.552,9.78,9.78,0,0,1,6.557,9.289v6.557a8.631,8.631,0,0,0,8.743,8.743h21.037a8.631,8.631,0,0,0,8.743-8.743v-6.557a10.049,10.049,0,0,1,6.557-9.289c3.005-1.093,5.737-2.186,8.742-3.552a9.569,9.569,0,0,1,11.2,1.912l4.645,4.645a8.423,8.423,0,0,0,12.294,0l14.753-14.753a8.424,8.424,0,0,0,0-12.294l-4.644-4.645a9.569,9.569,0,0,1-1.913-11.2,83.435,83.435,0,0,0,3.552-8.743,9.78,9.78,0,0,1,9.289-6.557h6.557A8.8,8.8,0,0,0,555.274,353.456ZM460.2,390.612c-29.233,2.186-53.822-22.13-51.363-51.363a47.921,47.921,0,0,1,43.713-43.713c29.233-2.186,53.822,22.13,51.363,51.363A48.157,48.157,0,0,1,460.2,390.612Z" transform="translate(-357.2 -243.9)" fill="#5968f6"/>
              <path id="Path_347" data-name="Path 347" d="M555.274,353.456V332.419a8.631,8.631,0,0,0-8.743-8.743h-6.557a10.049,10.049,0,0,1-9.289-6.557c-1.093-3.005-2.186-5.737-3.552-8.743a9.569,9.569,0,0,1,1.913-11.2l4.644-4.645a8.423,8.423,0,0,0,0-12.294l-14.753-14.753a8.423,8.423,0,0,0-12.294,0L502,270.128a9.569,9.569,0,0,1-11.2,1.912,83.456,83.456,0,0,0-8.742-3.552A9.78,9.78,0,0,1,475.5,259.2v-6.557a8.631,8.631,0,0,0-8.743-8.743H445.719a8.631,8.631,0,0,0-8.743,8.743V259.2a10.049,10.049,0,0,1-6.557,9.289c-3.005,1.093-5.737,2.186-8.743,3.552a9.569,9.569,0,0,1-11.2-1.912l-4.645-4.645a8.423,8.423,0,0,0-12.294,0l-14.753,14.753a8.423,8.423,0,0,0,0,12.294l4.645,4.645a9.569,9.569,0,0,1,1.913,11.2,83.417,83.417,0,0,0-3.552,8.743,9.78,9.78,0,0,1-9.289,6.557h-6.557a8.631,8.631,0,0,0-8.743,8.743v21.037a8.631,8.631,0,0,0,8.743,8.743H372.5a10.05,10.05,0,0,1,9.289,6.557c1.093,3.005,2.186,5.737,3.552,8.743a9.569,9.569,0,0,1-1.913,11.2l-4.645,4.645a8.423,8.423,0,0,0,0,12.294l14.753,14.753a8.423,8.423,0,0,0,12.294,0l4.645-4.645a9.569,9.569,0,0,1,11.2-1.912,83.47,83.47,0,0,0,8.743,3.552,9.78,9.78,0,0,1,6.557,9.289v6.557a8.631,8.631,0,0,0,8.743,8.743h21.037a8.631,8.631,0,0,0,8.743-8.743v-6.557a10.049,10.049,0,0,1,6.557-9.289c3.005-1.093,5.737-2.186,8.742-3.552a9.569,9.569,0,0,1,11.2,1.912l4.645,4.645a8.423,8.423,0,0,0,12.294,0l14.753-14.753a8.424,8.424,0,0,0,0-12.294l-4.644-4.645a9.569,9.569,0,0,1-1.913-11.2,83.435,83.435,0,0,0,3.552-8.743,9.78,9.78,0,0,1,9.289-6.557h6.557A8.8,8.8,0,0,0,555.274,353.456ZM460.2,390.612c-29.233,2.186-53.822-22.13-51.363-51.363a47.921,47.921,0,0,1,43.713-43.713c29.233-2.186,53.822,22.13,51.363,51.363A48.157,48.157,0,0,1,460.2,390.612Z" transform="translate(-357.2 -243.9)" fill="#101a43" opacity="0.19"/>
              <circle id="Ellipse_6" data-name="Ellipse 6" cx="63.657" cy="63.657" r="63.657" transform="matrix(0.664, -0.748, 0.748, 0.664, 9.099, 104.677)" fill="none" stroke="#41378c" stroke-miterlimit="10" stroke-width="2.961"/>
              <path id="Path_120" data-name="Path 120" d="M370.2,320.557A63.721,63.721,0,0,1,433.857,256.9" transform="translate(-334.683 -221.383)" fill="none" stroke="#5046af" stroke-linecap="round" stroke-miterlimit="10" stroke-width="2.961"/>
            </g>
            <path id="Path_121" data-name="Path 121" d="M408.882,274.661a4.282,4.282,0,0,0,.546-6.011l-1.639-2.186a14.37,14.37,0,0,1-3.279-8.742c0-2.186-1.366-8.469-3.552-7.923-1.912.273,0,7.923-1.912,7.65-.82,0-4.1-5.464-6.557-8.743-1.366-1.639-3.825-2.732-4.1-1.093-.273,1.093-1.366,1.093-2.459,1.912s-.546,6.284-.546,7.923c0,1.912-.546,2.459,2.186,5.464,2.186,2.459,11.475,8.469,11.475,8.469l4.1,2.732a4,4,0,0,0,5.737.547Z" transform="translate(-308.616 -186.962)" fill="#fab9af"/>
            <path id="Path_122" data-name="Path 122" d="M397.73,266.246s38.522,37.156,47.538,40.161,34.97-50.543,39.615-56.007c7.65-9.289,24.315.273,21.31,17.212-3.552,21.31-54.641,62.838-60.925,63.384S390.9,274.442,390.9,274.442C391.72,271.71,393.905,268.978,397.73,266.246Z" transform="translate(-298.83 -187.016)" fill="#00aeef"/>
          </g>
          <g id="Group_124" data-name="Group 124" transform="translate(328.994 102.726)">
            <path id="Path_124" data-name="Path 124" d="M322.343,166.512h0a10.243,10.243,0,0,1,3.005.273,20.586,20.586,0,0,1,17.485,23.769,21.124,21.124,0,0,1-20.764,17.758,10.244,10.244,0,0,1-3.005-.273,20.884,20.884,0,0,1,3.278-41.527m0-1.912a22.806,22.806,0,0,0-3.552,45.352,14.436,14.436,0,0,0,3.552.273,22.806,22.806,0,0,0,3.552-45.352,16.8,16.8,0,0,0-3.552-.273Z" transform="translate(-299.404 -164.6)" fill="#fff"/>
          </g>
          <path id="Path_125" data-name="Path 125" d="M914,386.543H195.471a4.315,4.315,0,0,1-4.371-4.371h0a4.315,4.315,0,0,1,4.371-4.371H914a4.316,4.316,0,0,1,4.372,4.371h0A4.158,4.158,0,0,1,914,386.543Z" transform="translate(-157.999 307.401)" fill="#d2f0ff"/>
          <g id="Enerpize_Mark_SVG" transform="translate(342.261 111.377)">
            <path id="Path_49" data-name="Path 49" d="M597.8,230.15h7.293V219Z" transform="translate(-592.952 -219)" fill="#fff"/>
            <path id="Path_50" data-name="Path 50" d="M613,395.2v11.151l7.293-11.151Z" transform="translate(-606.55 -376.63)" fill="#fff"/>
            <path id="Path_51" data-name="Path 51" d="M565.543,332.22l4.848-7.42H556.648l-4.848,7.42h13.743Z" transform="translate(-551.8 -313.65)" fill="#fff"/>
          </g>
        </g>
      </g>
    </g>
  </g>
</svg>
