<?xml version="1.0" encoding="UTF-8"?>
<svg width="200" height="100" version="1.1" viewBox="0 0 1e3 750" xmlns="http://www.w3.org/2000/svg">
<rect width="40" height="40" fill="#f6f9fc"/>
<g transform="matrix(.51911 0 0 .51911 240.44 83)">
<svg width="1e3" height="1125" data-background-color="#f6f9fc" viewBox="0 0 320 360" xmlns="http://www.w3.org/2000/svg" xmlns:xlink="http://www.w3.org/1999/xlink">
<g>
<svg width="320" height="360" viewBox="0 0 320 360">
<svg/>
<svg width="320" height="360" viewBox="0 0 320 360">
<path d="m297.49 100.64c-12.426-21.51-112.67-79.355-137.49-79.355s-125.03 57.845-137.49 79.355c-11.591 20.02-11.591 138.73 0 158.75 12.463 21.474 112.67 79.319 137.49 79.319s125.06-57.845 137.49-79.355c11.591-20.02 11.591-138.69 0-158.71zm11.99-6.94c-14.461-24.998-119.47-86.295-149.48-86.295s-135.02 61.297-149.48 86.295c-14.025 24.199-14.025 148.39 0 172.59 14.461 24.998 119.47 86.295 149.48 86.295s135.02-61.297 149.48-86.259c14.025-24.235 14.025-148.43 0-172.63zm-8.575 167.65c-12.753 22.055-115.47 81.317-140.91 81.318-25.434 0-128.15-59.298-140.91-81.354-11.881-20.529-11.881-142.18 0-162.71 12.753-22.019 115.47-81.281 140.91-81.281s128.15 59.298 140.91 81.318c11.881 20.529 11.881 142.18 0 162.71z" fill="#00aeef" font-family="none" font-size="none" font-weight="none" stroke-dasharray="" stroke-miterlimit="10" text-anchor="none" style="mix-blend-mode:normal" data-fill-palette-color="tertiary" xmlns="http://www.w3.org/2000/svg"/>
<g transform="translate(48 150.18)">
<svg width="224" height="59.633" viewBox="0 0 224 59.63254593175852">
<svg width="224" height="59.633" viewBox="0 0 224 59.63254593175852">
<svg width="224" height="59.633" viewBox="0 0 224 59.63254593175852">
<svg width="224" height="59.633" viewBox="0 0 224 59.63254593175852">
<svg width="224" height="59.633" viewBox="0 0 224 59.63254593175852">
<svg width="224" height="59.633" viewBox="0 0 224 59.63254593175852">
<g>
<svg width="224" height="59.633" data-palette-color="#ffffff" viewBox="3.25 -35.5 133.33999633789062 35.5">
<path class="wordmark-text-0" d="m23.15-4.4v4.4h-19.9v-26.65q0-3.7 2.35-5.95 1.6-1.5 3.6-1.95t4.9-0.45h9.05v4.4h-9.7q-5.5 0-5.5 4.6v5.7h11.55v4.4h-11.55v11.5h15.2zm14.25-30.6h9.15v4.4h-8.85q-5.05 0-5.05 4.1 0 2.2 2.22 3.72 2.23 1.53 6.03 2.93 1.7 0.65 2.9 1.32 1.2 0.68 2.4 1.78t1.8 2.82q0.6 1.73 0.6 3.98 0 2.5-1.05 4.47-1.05 1.98-2.7 3.1-1.65 1.13-3.38 1.7-1.72 0.58-3.37 0.63-0.7 0.05-2 0.05h-7.8v-4.4h7.65q3.4 0 5.55-1.43 2.15-1.42 2.15-4.17 0-1.35-0.6-2.38-0.6-1.02-1.73-1.77-1.12-0.75-2.3-1.3-1.17-0.55-2.82-1.15-0.45-0.15-0.7-0.25-7.85-3-7.85-9.8 0-4.2 2.7-6.28 2.7-2.07 7.05-2.07zm21.15 35h-4.7v-22.75q0-6.05 2.97-9.4 2.98-3.35 8.48-3.35 5.54 0 8.52 2.7t2.98 7.6q0 3.15-1.5 5.15t-5.1 3.15v0.2q3.75 1.45 5.02 4.12 1.28 2.68 1.28 8.83v3.75h-4.7v-6.4q0-3.8-2.15-5.93-2.15-2.12-6.2-2.12h-2.7v-4.4h2.85q4.8 0 6.65-1.95 1.84-1.95 1.84-4.65 0-2.55-1.82-4.1t-4.82-1.55q-3.45 0-5.18 1.95-1.72 1.95-1.72 6.4v22.75zm28.19-12.8v12.8h-4.45v-22q0-5.4 3.48-9.2 3.47-3.8 8.97-3.8h11.45v35h-4.7v-30.6h-6.75q-3.65 0-5.82 2.15-2.18 2.15-2.18 6.85v4.25q2.8-2.95 8-2.95h4.55v4.4h-4.55q-2.9 0-4.72 0.7-1.83 0.7-3.28 2.4zm30.4 0v12.8h-4.45v-22q0-5.4 3.48-9.2 3.47-3.8 8.97-3.8h11.45v35h-4.7v-30.6h-6.75q-3.65 0-5.82 2.15-2.18 2.15-2.18 6.85v4.25q2.8-2.95 8-2.95h4.55v4.4h-4.55q-2.9 0-4.72 0.7-1.83 0.7-3.28 2.4z" fill="#fff" data-fill-palette-color="quaternary"/>
</svg>
</g>
</svg>
</svg>
</svg>
</svg>
</svg>
</svg>
</g>
</svg>
</svg>
<rect width="40" height="40" fill="none" visibility="hidden"/>
</g>
</svg>
</g>
</svg>
